<svg data-v-423bf9ae="" xmlns="http://www.w3.org/2000/svg" viewBox="0 0 532.706782679172 60" class="font"><!----><!----><!----><g data-v-423bf9ae="" id="9dc9c877-12c2-43af-b8e7-888fc1682625" fill="#1e7678" transform="matrix(6.128702184780957,0,0,6.128702184780957,-9.683356306012683,-6.251276588418023)"><path d="M6.25 6.62L2.43 6.62L2.43 10.64L1.58 10.64L1.58 1.24L6.25 1.24L6.25 1.24Q7.33 1.24 8.09 1.41L8.09 1.41L8.09 1.41Q8.86 1.58 9.35 1.92L9.35 1.92L9.35 1.92Q9.84 2.26 10.06 2.76L10.06 2.76L10.06 2.76Q10.29 3.27 10.29 3.94L10.29 3.94L10.29 3.94Q10.29 5.00 9.73 5.63L9.73 5.63L9.73 5.63Q9.18 6.26 7.95 6.49L7.95 6.49L11.16 10.64L10.08 10.64L7.05 6.59L7.05 6.59Q6.86 6.60 6.67 6.61L6.67 6.61L6.67 6.61Q6.47 6.62 6.25 6.62L6.25 6.62ZM9.41 3.94L9.41 3.94L9.41 3.94Q9.41 3.34 9.19 2.97L9.19 2.97L9.19 2.97Q8.98 2.60 8.50 2.39L8.50 2.39L8.50 2.39Q8.03 2.19 7.25 2.12L7.25 2.12L7.25 2.12Q6.47 2.04 5.35 2.04L5.35 2.04L2.43 2.04L2.43 5.82L5.32 5.82L5.32 5.82Q6.45 5.82 7.23 5.75L7.23 5.75L7.23 5.75Q8.00 5.69 8.49 5.49L8.49 5.49L8.49 5.49Q8.98 5.28 9.19 4.92L9.19 4.92L9.19 4.92Q9.41 4.55 9.41 3.94ZM23.19 10.64L22.26 10.64L14.10 2.37L14.10 10.64L13.24 10.64L13.24 1.24L14.18 1.24L22.35 9.54L22.35 1.24L23.19 1.24L23.19 10.64ZM27.20 1.24L27.20 7.39L27.20 7.39Q27.20 8.03 27.30 8.48L27.30 8.48L27.30 8.48Q27.41 8.94 27.73 9.24L27.73 9.24L27.73 9.24Q28.06 9.53 28.68 9.67L28.68 9.67L28.68 9.67Q29.30 9.81 30.32 9.81L30.32 9.81L34.57 9.81L34.57 10.64L30.15 10.64L30.15 10.64Q29.03 10.64 28.29 10.46L28.29 10.46L28.29 10.46Q27.56 10.27 27.12 9.90L27.12 9.90L27.12 9.90Q26.69 9.52 26.52 8.93L26.52 8.93L26.52 8.93Q26.35 8.35 26.35 7.55L26.35 7.55L26.35 1.24L27.20 1.24ZM37.14 10.64L36.29 10.64L36.29 1.24L37.14 1.24L37.14 10.64ZM50.25 10.64L49.40 10.64L49.40 4.44L49.40 4.44Q49.40 3.66 49.19 3.15L49.19 3.15L49.19 3.15Q48.98 2.65 48.59 2.36L48.59 2.36L48.59 2.36Q48.21 2.06 47.65 1.95L47.65 1.95L47.65 1.95Q47.10 1.83 46.41 1.83L46.41 1.83L46.41 1.83Q45.61 1.83 44.84 2.03L44.84 2.03L44.84 2.03Q44.07 2.22 43.39 2.52L43.39 2.52L43.39 2.52Q42.70 2.82 42.13 3.18L42.13 3.18L42.13 3.18Q41.56 3.54 41.16 3.88L41.16 3.88L41.16 10.64L40.30 10.64L40.30 1.24L41.16 1.24L41.16 2.89L41.16 2.89Q41.64 2.59 42.22 2.26L42.22 2.26L42.22 2.26Q42.79 1.93 43.46 1.65L43.46 1.65L43.46 1.65Q44.13 1.37 44.88 1.20L44.88 1.20L44.88 1.20Q45.64 1.02 46.48 1.02L46.48 1.02L46.48 1.02Q47.43 1.02 48.14 1.25L48.14 1.25L48.14 1.25Q48.85 1.48 49.32 1.90L49.32 1.90L49.32 1.90Q49.79 2.32 50.02 2.92L50.02 2.92L50.02 2.92Q50.25 3.51 50.25 4.25L50.25 4.25L50.25 10.64ZM63.06 10.64L62.18 10.64L62.18 10.64Q62.11 9.87 61.80 9.25L61.80 9.25L61.80 9.25Q61.50 8.63 61.01 8.16L61.01 8.16L61.01 8.16Q60.53 7.68 59.91 7.33L59.91 7.33L59.91 7.33Q59.29 6.99 58.59 6.76L58.59 6.76L58.59 6.76Q57.89 6.54 57.15 6.43L57.15 6.43L57.15 6.43Q56.40 6.32 55.68 6.32L55.68 6.32L54.22 6.32L54.22 10.64L53.37 10.64L53.37 1.24L54.22 1.24L54.22 5.57L55.45 5.57L55.45 5.57Q56.18 5.57 56.90 5.44L56.90 5.44L56.90 5.44Q57.63 5.30 58.29 5.05L58.29 5.05L58.29 5.05Q58.95 4.79 59.52 4.42L59.52 4.42L59.52 4.42Q60.09 4.05 60.53 3.56L60.53 3.56L60.53 3.56Q60.96 3.08 61.24 2.50L61.24 2.50L61.24 2.50Q61.52 1.92 61.59 1.24L61.59 1.24L62.47 1.24L62.47 1.24Q62.41 1.99 62.14 2.59L62.14 2.59L62.14 2.59Q61.88 3.20 61.50 3.68L61.50 3.68L61.50 3.68Q61.11 4.17 60.64 4.54L60.64 4.54L60.64 4.54Q60.17 4.90 59.68 5.16L59.68 5.16L59.68 5.16Q59.20 5.43 58.73 5.60L58.73 5.60L58.73 5.60Q58.27 5.78 57.89 5.87L57.89 5.87L57.89 5.87Q58.37 5.94 58.92 6.09L58.92 6.09L58.92 6.09Q59.47 6.25 60.02 6.50L60.02 6.50L60.02 6.50Q60.57 6.76 61.09 7.13L61.09 7.13L61.09 7.13Q61.61 7.51 62.02 8.01L62.02 8.01L62.02 8.01Q62.43 8.52 62.71 9.17L62.71 9.17L62.71 9.17Q62.99 9.82 63.06 10.64L63.06 10.64ZM74.98 9.15L74.98 10.14L74.98 10.14Q74.40 10.32 73.91 10.45L73.91 10.45L73.91 10.45Q73.42 10.58 72.94 10.65L72.94 10.65L72.94 10.65Q72.46 10.73 71.97 10.77L71.97 10.77L71.97 10.77Q71.47 10.81 70.88 10.81L70.88 10.81L70.88 10.81Q69.49 10.81 68.38 10.47L68.38 10.47L68.38 10.47Q67.27 10.14 66.48 9.51L66.48 9.51L66.48 9.51Q65.70 8.89 65.28 8.00L65.28 8.00L65.28 8.00Q64.85 7.11 64.85 6.00L64.85 6.00L64.85 6.00Q64.85 4.93 65.26 4.03L65.26 4.03L65.26 4.03Q65.67 3.14 66.40 2.50L66.40 2.50L66.40 2.50Q67.13 1.85 68.15 1.50L68.15 1.50L68.15 1.50Q69.17 1.14 70.40 1.14L70.40 1.14L70.40 1.14Q71.67 1.14 72.67 1.48L72.67 1.48L72.67 1.48Q73.67 1.83 74.35 2.46L74.35 2.46L74.35 2.46Q75.04 3.10 75.39 4.00L75.39 4.00L75.39 4.00Q75.75 4.91 75.75 6.04L75.75 6.04L75.75 6.25L65.73 6.25L65.73 6.25Q65.81 7.13 66.17 7.83L66.17 7.83L66.17 7.83Q66.53 8.54 67.20 9.03L67.20 9.03L67.20 9.03Q67.87 9.52 68.84 9.79L68.84 9.79L68.84 9.79Q69.82 10.05 71.11 10.05L71.11 10.05L71.11 10.05Q71.67 10.05 72.24 9.97L72.24 9.97L72.24 9.97Q72.80 9.90 73.32 9.77L73.32 9.77L73.32 9.77Q73.84 9.65 74.27 9.48L74.27 9.48L74.27 9.48Q74.70 9.32 74.98 9.15L74.98 9.15ZM65.73 5.51L74.91 5.51L74.91 5.51Q74.86 4.79 74.59 4.14L74.59 4.14L74.59 4.14Q74.31 3.49 73.77 2.99L73.77 2.99L73.77 2.99Q73.23 2.49 72.39 2.19L72.39 2.19L72.39 2.19Q71.55 1.90 70.38 1.90L70.38 1.90L70.38 1.90Q69.28 1.90 68.46 2.19L68.46 2.19L68.46 2.19Q67.63 2.49 67.05 2.98L67.05 2.98L67.05 2.98Q66.48 3.48 66.15 4.13L66.15 4.13L66.15 4.13Q65.82 4.79 65.73 5.51L65.73 5.51ZM88.50 5.93L88.50 5.93L88.50 5.93Q88.50 6.84 88.32 7.54L88.32 7.54L88.32 7.54Q88.13 8.24 87.79 8.76L87.79 8.76L87.79 8.76Q87.45 9.28 86.96 9.64L86.96 9.64L86.96 9.64Q86.47 10.00 85.87 10.22L85.87 10.22L85.87 10.22Q85.27 10.44 84.57 10.54L84.57 10.54L84.57 10.54Q83.87 10.64 83.10 10.64L83.10 10.64L78.25 10.64L78.25 1.24L83.08 1.24L83.08 1.24Q84.24 1.24 85.23 1.47L85.23 1.47L85.23 1.47Q86.22 1.70 86.95 2.24L86.95 2.24L86.95 2.24Q87.68 2.78 88.09 3.68L88.09 3.68L88.09 3.68Q88.50 4.59 88.50 5.93ZM87.62 5.93L87.62 5.93L87.62 5.93Q87.62 5.17 87.47 4.58L87.47 4.58L87.47 4.58Q87.32 3.99 87.04 3.56L87.04 3.56L87.04 3.56Q86.76 3.12 86.36 2.83L86.36 2.83L86.36 2.83Q85.96 2.54 85.45 2.35L85.45 2.35L85.45 2.35Q84.94 2.17 84.35 2.10L84.35 2.10L84.35 2.10Q83.75 2.02 83.08 2.02L83.08 2.02L79.11 2.02L79.11 9.85L83.08 9.85L83.08 9.85Q84.09 9.85 84.92 9.67L84.92 9.67L84.92 9.67Q85.76 9.49 86.35 9.04L86.35 9.04L86.35 9.04Q86.95 8.59 87.29 7.84L87.29 7.84L87.29 7.84Q87.62 7.08 87.62 5.93Z"></path></g><!----><!----></svg>