<svg data-v-423bf9ae="" xmlns="http://www.w3.org/2000/svg" viewBox="0 0 98.86135348576843 60" className="font"><!----><!----><!----><g data-v-423bf9ae="" id="fd28ecca-bc1b-4274-96c9-897b4079d1e8" fill="black" transform="matrix(9.64501009617253,0,0,9.64501009617253,-1.1574014209405092,-62.58807797502506)"><path d="M1.87 6.58L0.12 8.23L0.27 8.37L0.27 8.37Q0.85 7.79 1.08 7.91L1.08 7.91L1.08 7.91Q1.31 8.04 1.08 8.80L1.08 8.80L0.39 11.58L0.39 11.58Q0.27 12.56 0.94 12.71L0.94 12.71L2.63 11.40L2.56 11.27L2.56 11.27Q1.75 11.70 1.90 11.05L1.90 11.05L2.57 8.37L2.57 8.37Q2.82 7.57 3.18 7.54L3.18 7.54L3.18 7.54Q3.54 7.51 3.75 8.24L3.75 8.24L5.13 7.35L5.13 7.35Q4.85 6.67 4.38 6.55L4.38 6.55L4.38 6.55Q3.90 6.43 3.47 6.75L3.47 6.75L3.47 6.75Q3.04 7.07 2.67 7.58L2.67 7.58L2.67 7.58Q2.77 6.70 1.87 6.58L1.87 6.58ZM6.29 6.51L4.75 7.80L4.87 8.00L5.35 7.64L5.35 7.64Q5.89 7.67 5.62 8.76L5.62 8.76L5.06 11.57L5.06 11.57Q4.87 12.58 5.64 12.71L5.64 12.71L7.18 11.44L7.08 11.31L6.61 11.64L6.61 11.64Q6.36 11.53 6.57 10.62L6.57 10.62L7.08 8.05L7.88 7.63L7.88 7.63Q9.26 7.32 8.79 9.03L8.79 9.03L8.28 11.54L8.28 11.54Q8.07 12.54 8.61 12.69L8.61 12.69L10.37 11.43L10.27 11.25L9.80 11.62L9.80 11.62Q9.56 11.59 9.73 10.81L9.73 10.81L10.27 8.10L10.27 8.10Q10.44 7.18 9.94 6.79L9.94 6.79L9.94 6.79Q9.45 6.41 8.83 6.51L8.83 6.51L7.09 7.73L7.09 7.73Q7.16 6.64 6.29 6.51L6.29 6.51Z"></path></g><!----><!----></svg>