<svg xmlns="http://www.w3.org/2000/svg" xmlns:xlink="http://www.w3.org/1999/xlink" width="500" zoomAndPan="magnify" viewBox="0 0 375 374.999991" height="500" preserveAspectRatio="xMidYMid meet" version="1.0"><defs><g/></defs><g fill="#000000" fill-opacity="1"><g transform="translate(121.601419, 209.549972)"><g><path d="M 4.65625 0 L 4.65625 -44.09375 L 18.90625 -44.09375 C 22.34375 -44.09375 25.15625 -43.523438 27.34375 -42.390625 C 29.53125 -41.265625 31.144531 -39.710938 32.1875 -37.734375 C 33.238281 -35.765625 33.765625 -33.582031 33.765625 -31.1875 C 33.765625 -28.414062 33.019531 -25.914062 31.53125 -23.6875 C 30.039062 -21.457031 27.71875 -19.882812 24.5625 -18.96875 L 34.203125 0 L 27.96875 0 L 19.03125 -18.203125 L 9.953125 -18.203125 L 9.953125 0 Z M 9.953125 -22.359375 L 18.515625 -22.359375 C 21.921875 -22.359375 24.398438 -23.175781 25.953125 -24.8125 C 27.503906 -26.457031 28.28125 -28.5625 28.28125 -31.125 C 28.28125 -33.726562 27.515625 -35.796875 25.984375 -37.328125 C 24.453125 -38.859375 21.941406 -39.625 18.453125 -39.625 L 9.953125 -39.625 Z M 9.953125 -22.359375 "/></g></g></g><g fill="#000000" fill-opacity="1"><g transform="translate(160.850817, 209.549972)"><g><path d="M 4.65625 0 L 4.65625 -44.09375 L 9.953125 -44.09375 L 33.453125 -8.75 L 33.453125 -44.09375 L 38.75 -44.09375 L 38.75 0 L 33.453125 0 L 9.953125 -35.34375 L 9.953125 0 Z M 4.65625 0 "/></g></g></g><g fill="#000000" fill-opacity="1"><g transform="translate(206.148223, 209.549972)"><g><path d="M 4.65625 0 L 4.65625 -44.09375 L 9.953125 -44.09375 L 9.953125 -4.21875 L 30.484375 -4.21875 L 30.484375 0 Z M 4.65625 0 "/></g></g></g><g fill="#000000" fill-opacity="1"><g transform="translate(241.113606, 209.549972)"><g><path d="M 6.171875 0.3125 C 5.117188 0.3125 4.242188 -0.03125 3.546875 -0.71875 C 2.859375 -1.414062 2.515625 -2.269531 2.515625 -3.28125 C 2.515625 -4.28125 2.859375 -5.125 3.546875 -5.8125 C 4.242188 -6.507812 5.117188 -6.859375 6.171875 -6.859375 C 7.179688 -6.859375 8.03125 -6.507812 8.71875 -5.8125 C 9.414062 -5.125 9.765625 -4.28125 9.765625 -3.28125 C 9.765625 -2.269531 9.414062 -1.414062 8.71875 -0.71875 C 8.03125 -0.03125 7.179688 0.3125 6.171875 0.3125 Z M 6.171875 0.3125 "/></g></g></g></svg>