<svg xmlns="http://www.w3.org/2000/svg" xmlns:xlink="http://www.w3.org/1999/xlink" width="150" zoomAndPan="magnify" viewBox="0 0 112.5 60" height="80" preserveAspectRatio="xMidYMid meet" version="1.0"><defs><g/></defs><g fill="#62beae" fill-opacity="1"><g transform="translate(8.456593, 45.882742)"><g><path d="M 3.53125 0 L 3.53125 -33.421875 L 14.328125 -33.421875 C 16.929688 -33.421875 19.0625 -32.988281 20.71875 -32.125 C 22.375 -31.269531 23.597656 -30.09375 24.390625 -28.59375 C 25.191406 -27.101562 25.59375 -25.453125 25.59375 -23.640625 C 25.59375 -21.535156 25.023438 -19.640625 23.890625 -17.953125 C 22.765625 -16.265625 21.007812 -15.070312 18.625 -14.375 L 25.921875 0 L 21.203125 0 L 14.421875 -13.796875 L 7.546875 -13.796875 L 7.546875 0 Z M 7.546875 -16.953125 L 14.03125 -16.953125 C 16.613281 -16.953125 18.492188 -17.570312 19.671875 -18.8125 C 20.847656 -20.050781 21.4375 -21.644531 21.4375 -23.59375 C 21.4375 -25.5625 20.851562 -27.125 19.6875 -28.28125 C 18.53125 -29.445312 16.628906 -30.03125 13.984375 -30.03125 L 7.546875 -30.03125 Z M 7.546875 -16.953125 "/></g></g></g><g fill="#62beae" fill-opacity="1"><g transform="translate(36.767741, 45.882742)"><g><path d="M 3.53125 0 L 3.53125 -33.421875 L 7.546875 -33.421875 L 25.359375 -6.640625 L 25.359375 -33.421875 L 29.359375 -33.421875 L 29.359375 0 L 25.359375 0 L 7.546875 -26.78125 L 7.546875 0 Z M 3.53125 0 "/></g></g></g><g fill="#62beae" fill-opacity="1"><g transform="translate(69.662144, 45.882742)"><g><path d="M 3.53125 0 L 3.53125 -33.421875 L 7.546875 -33.421875 L 7.546875 -3.203125 L 23.109375 -3.203125 L 23.109375 0 Z M 3.53125 0 "/></g></g></g><g fill="#62beae" fill-opacity="1"><g transform="translate(94.72682, 45.882742)"><g><path d="M 4.671875 0.234375 C 3.878906 0.234375 3.21875 -0.0234375 2.6875 -0.546875 C 2.164062 -1.078125 1.90625 -1.722656 1.90625 -2.484375 C 1.90625 -3.242188 2.164062 -3.882812 2.6875 -4.40625 C 3.21875 -4.9375 3.878906 -5.203125 4.671875 -5.203125 C 5.441406 -5.203125 6.085938 -4.9375 6.609375 -4.40625 C 7.140625 -3.882812 7.40625 -3.242188 7.40625 -2.484375 C 7.40625 -1.722656 7.140625 -1.078125 6.609375 -0.546875 C 6.085938 -0.0234375 5.441406 0.234375 4.671875 0.234375 Z M 4.671875 0.234375 "/></g></g></g></svg>