<svg xmlns="http://www.w3.org/2000/svg" xmlns:xlink="http://www.w3.org/1999/xlink" width="500" zoomAndPan="magnify" viewBox="0 0 375 374.999991" height="500" preserveAspectRatio="xMidYMid meet" version="1.0"><defs><g/></defs><g fill="#000000" fill-opacity="1"><g transform="translate(47.29283, 209.549972)"><g><path d="M 4.65625 0 L 4.65625 -44.09375 L 18.90625 -44.09375 C 22.34375 -44.09375 25.15625 -43.523438 27.34375 -42.390625 C 29.53125 -41.265625 31.144531 -39.710938 32.1875 -37.734375 C 33.238281 -35.765625 33.765625 -33.582031 33.765625 -31.1875 C 33.765625 -28.414062 33.019531 -25.914062 31.53125 -23.6875 C 30.039062 -21.457031 27.71875 -19.882812 24.5625 -18.96875 L 34.203125 0 L 27.96875 0 L 19.03125 -18.203125 L 9.953125 -18.203125 L 9.953125 0 Z M 9.953125 -22.359375 L 18.515625 -22.359375 C 21.921875 -22.359375 24.398438 -23.175781 25.953125 -24.8125 C 27.503906 -26.457031 28.28125 -28.5625 28.28125 -31.125 C 28.28125 -33.726562 27.515625 -35.796875 25.984375 -37.328125 C 24.453125 -38.859375 21.941406 -39.625 18.453125 -39.625 L 9.953125 -39.625 Z M 9.953125 -22.359375 "/></g></g></g><g fill="#000000" fill-opacity="1"><g transform="translate(86.542228, 209.549972)"><g><path d="M 4.65625 0 L 4.65625 -44.09375 L 9.953125 -44.09375 L 33.453125 -8.75 L 33.453125 -44.09375 L 38.75 -44.09375 L 38.75 0 L 33.453125 0 L 9.953125 -35.34375 L 9.953125 0 Z M 4.65625 0 "/></g></g></g><g fill="#000000" fill-opacity="1"><g transform="translate(131.839634, 209.549972)"><g><path d="M 4.34375 0 L 4.34375 -45.359375 L 9.640625 -45.359375 L 9.640625 0 Z M 4.34375 0 "/></g></g></g><g fill="#000000" fill-opacity="1"><g transform="translate(147.715999, 209.549972)"><g><path d="M 7.5625 -38.171875 C 6.507812 -38.171875 5.632812 -38.515625 4.9375 -39.203125 C 4.25 -39.898438 3.90625 -40.773438 3.90625 -41.828125 C 3.90625 -42.835938 4.25 -43.675781 4.9375 -44.34375 C 5.632812 -45.019531 6.507812 -45.359375 7.5625 -45.359375 C 8.570312 -45.359375 9.429688 -45.019531 10.140625 -44.34375 C 10.859375 -43.675781 11.21875 -42.835938 11.21875 -41.828125 C 11.21875 -40.773438 10.859375 -39.898438 10.140625 -39.203125 C 9.429688 -38.515625 8.570312 -38.171875 7.5625 -38.171875 Z M 4.90625 0 L 4.90625 -31.25 L 10.203125 -31.25 L 10.203125 0 Z M 4.90625 0 "/></g></g></g><g fill="#000000" fill-opacity="1"><g transform="translate(164.663359, 209.549972)"><g><path d="M 4.34375 0 L 4.34375 -31.25 L 9.140625 -31.25 L 9.453125 -25.640625 C 10.460938 -27.617188 11.910156 -29.171875 13.796875 -30.296875 C 15.679688 -31.429688 17.820312 -32 20.21875 -32 C 23.914062 -32 26.863281 -30.875 29.0625 -28.625 C 31.269531 -26.382812 32.375 -22.929688 32.375 -18.265625 L 32.375 0 L 27.09375 0 L 27.09375 -17.703125 C 27.09375 -24.210938 24.40625 -27.46875 19.03125 -27.46875 C 16.34375 -27.46875 14.101562 -26.488281 12.3125 -24.53125 C 10.53125 -22.582031 9.640625 -19.800781 9.640625 -16.1875 L 9.640625 0 Z M 4.34375 0 "/></g></g></g><g fill="#000000" fill-opacity="1"><g transform="translate(202.589752, 209.549972)"><g><path d="M 4.34375 0 L 4.34375 -45.359375 L 9.640625 -45.359375 L 9.640625 -18.078125 L 22.421875 -31.25 L 28.921875 -31.25 L 15.0625 -17.140625 L 30.6875 0 L 23.9375 0 L 9.640625 -16.1875 L 9.640625 0 Z M 4.34375 0 "/></g></g></g><g fill="#000000" fill-opacity="1"><g transform="translate(236.232141, 209.549972)"><g><path d="M 18.390625 0.75 C 15.410156 0.75 12.765625 0.0664062 10.453125 -1.296875 C 8.148438 -2.660156 6.335938 -4.554688 5.015625 -6.984375 C 3.691406 -9.421875 3.03125 -12.300781 3.03125 -15.625 C 3.03125 -18.894531 3.679688 -21.757812 4.984375 -24.21875 C 6.285156 -26.675781 8.097656 -28.585938 10.421875 -29.953125 C 12.753906 -31.316406 15.453125 -32 18.515625 -32 C 21.546875 -32 24.160156 -31.316406 26.359375 -29.953125 C 28.566406 -28.585938 30.257812 -26.789062 31.4375 -24.5625 C 32.613281 -22.34375 33.203125 -19.953125 33.203125 -17.390625 C 33.203125 -16.921875 33.191406 -16.457031 33.171875 -16 C 33.148438 -15.539062 33.140625 -15.015625 33.140625 -14.421875 L 8.25 -14.421875 C 8.375 -12.035156 8.929688 -10.050781 9.921875 -8.46875 C 10.910156 -6.894531 12.148438 -5.707031 13.640625 -4.90625 C 15.128906 -4.113281 16.710938 -3.71875 18.390625 -3.71875 C 20.578125 -3.71875 22.40625 -4.21875 23.875 -5.21875 C 25.34375 -6.226562 26.414062 -7.597656 27.09375 -9.328125 L 32.3125 -9.328125 C 31.476562 -6.429688 29.875 -4.023438 27.5 -2.109375 C 25.125 -0.203125 22.085938 0.75 18.390625 0.75 Z M 18.390625 -27.53125 C 15.867188 -27.53125 13.628906 -26.765625 11.671875 -25.234375 C 9.722656 -23.703125 8.601562 -21.460938 8.3125 -18.515625 L 27.96875 -18.515625 C 27.84375 -21.335938 26.875 -23.546875 25.0625 -25.140625 C 23.257812 -26.734375 21.035156 -27.53125 18.390625 -27.53125 Z M 18.390625 -27.53125 "/></g></g></g><g fill="#000000" fill-opacity="1"><g transform="translate(273.969534, 209.549972)"><g><path d="M 18.515625 0.75 C 15.410156 0.75 12.691406 0.0351562 10.359375 -1.390625 C 8.023438 -2.816406 6.21875 -4.769531 4.9375 -7.25 C 3.664062 -9.726562 3.03125 -12.539062 3.03125 -15.6875 C 3.03125 -18.832031 3.679688 -21.632812 4.984375 -24.09375 C 6.285156 -26.550781 8.085938 -28.484375 10.390625 -29.890625 C 12.703125 -31.296875 15.429688 -32 18.578125 -32 C 21.140625 -32 23.40625 -31.472656 25.375 -30.421875 C 27.351562 -29.378906 28.890625 -27.910156 29.984375 -26.015625 L 29.984375 -45.359375 L 35.28125 -45.359375 L 35.28125 0 L 30.484375 0 L 29.984375 -5.171875 C 28.972656 -3.648438 27.523438 -2.28125 25.640625 -1.0625 C 23.753906 0.144531 21.378906 0.75 18.515625 0.75 Z M 19.09375 -3.84375 C 21.1875 -3.84375 23.039062 -4.332031 24.65625 -5.3125 C 26.28125 -6.300781 27.539062 -7.675781 28.4375 -9.4375 C 29.34375 -11.207031 29.796875 -13.269531 29.796875 -15.625 C 29.796875 -17.976562 29.34375 -20.035156 28.4375 -21.796875 C 27.539062 -23.554688 26.28125 -24.929688 24.65625 -25.921875 C 23.039062 -26.910156 21.1875 -27.40625 19.09375 -27.40625 C 17.03125 -27.40625 15.191406 -26.910156 13.578125 -25.921875 C 11.960938 -24.929688 10.703125 -23.554688 9.796875 -21.796875 C 8.890625 -20.035156 8.4375 -17.976562 8.4375 -15.625 C 8.4375 -13.269531 8.890625 -11.207031 9.796875 -9.4375 C 10.703125 -7.675781 11.960938 -6.300781 13.578125 -5.3125 C 15.191406 -4.332031 17.03125 -3.84375 19.09375 -3.84375 Z M 19.09375 -3.84375 "/></g></g></g><g fill="#000000" fill-opacity="1"><g transform="translate(315.423946, 209.549972)"><g><path d="M 6.171875 0.3125 C 5.117188 0.3125 4.242188 -0.03125 3.546875 -0.71875 C 2.859375 -1.414062 2.515625 -2.269531 2.515625 -3.28125 C 2.515625 -4.28125 2.859375 -5.125 3.546875 -5.8125 C 4.242188 -6.507812 5.117188 -6.859375 6.171875 -6.859375 C 7.179688 -6.859375 8.03125 -6.507812 8.71875 -5.8125 C 9.414062 -5.125 9.765625 -4.28125 9.765625 -3.28125 C 9.765625 -2.269531 9.414062 -1.414062 8.71875 -0.71875 C 8.03125 -0.03125 7.179688 0.3125 6.171875 0.3125 Z M 6.171875 0.3125 "/></g></g></g></svg>